<svg width="20" height="20" viewBox="0 0 20 20" fill="none" xmlns="http://www.w3.org/2000/svg">
<path d="M10 1.66663C10.4602 1.66663 10.8333 2.03972 10.8333 2.49996V3.33329C10.8333 3.79353 10.4602 4.16663 10 4.16663C9.53976 4.16663 9.16666 3.79353 9.16666 3.33329V2.49996C9.16666 2.03972 9.53976 1.66663 10 1.66663ZM15.8926 4.1074C16.218 4.43283 16.218 4.96047 15.8926 5.28591L15.3033 5.87516C14.9779 6.2006 14.4503 6.2006 14.1248 5.87516C13.7994 5.54973 13.7994 5.02209 14.1248 4.69665L14.7141 4.1074C15.0395 3.78196 15.5672 3.78196 15.8926 4.1074ZM4.10744 4.1074C4.43287 3.78196 4.96051 3.78196 5.28595 4.1074L5.8752 4.69665C6.20064 5.02209 6.20064 5.54973 5.8752 5.87516C5.54977 6.2006 5.02213 6.2006 4.69669 5.87516L4.10744 5.28591C3.782 4.96047 3.782 4.43283 4.10744 4.1074ZM10 6.66663C8.15905 6.66663 6.66666 8.15901 6.66666 9.99996C6.66666 11.8409 8.15905 13.3333 10 13.3333C11.8409 13.3333 13.3333 11.8409 13.3333 9.99996C13.3333 8.15901 11.8409 6.66663 10 6.66663ZM5 9.99996C5 7.23853 7.23857 4.99996 10 4.99996C12.7614 4.99996 15 7.23853 15 9.99996C15 12.7614 12.7614 15 10 15C7.23857 15 5 12.7614 5 9.99996ZM1.66666 9.99996C1.66666 9.53972 2.03976 9.16662 2.5 9.16662H3.33333C3.79357 9.16662 4.16666 9.53972 4.16666 9.99996C4.16666 10.4602 3.79357 10.8333 3.33333 10.8333H2.5C2.03976 10.8333 1.66666 10.4602 1.66666 9.99996ZM15.8333 9.99996C15.8333 9.53972 16.2064 9.16662 16.6667 9.16662H17.5C17.9602 9.16662 18.3333 9.53972 18.3333 9.99996C18.3333 10.4602 17.9602 10.8333 17.5 10.8333H16.6667C16.2064 10.8333 15.8333 10.4602 15.8333 9.99996ZM4.69669 14.1247C5.02213 13.7993 5.54977 13.7993 5.8752 14.1247C6.20064 14.4502 6.20064 14.9778 5.8752 15.3033L5.28595 15.8925C4.96051 16.2179 4.43287 16.2179 4.10744 15.8925C3.782 15.5671 3.782 15.0394 4.10744 14.714L4.69669 14.1247ZM14.1248 15.3033C13.7994 14.9778 13.7994 14.4502 14.1248 14.1247C14.4503 13.7993 14.9779 13.7993 15.3033 14.1247L15.8926 14.714C16.218 15.0394 16.218 15.5671 15.8926 15.8925C15.5672 16.2179 15.0395 16.2179 14.7141 15.8925L14.1248 15.3033ZM10 15.8333C10.4602 15.8333 10.8333 16.2064 10.8333 16.6666V17.5C10.8333 17.9602 10.4602 18.3333 10 18.3333C9.53976 18.3333 9.16666 17.9602 9.16666 17.5V16.6666C9.16666 16.2064 9.53976 15.8333 10 15.8333Z" fill="#1C1D22"/>
</svg>
