<svg width="16" height="16" viewBox="0 0 16 16" fill="none" xmlns="http://www.w3.org/2000/svg">
<g opacity="0.5">
<path d="M2.66666 4.66667C2.66666 4.29848 2.96513 4 3.33332 4H3.99999C4.36818 4 4.66666 4.29848 4.66666 4.66667C4.66666 5.03486 4.36818 5.33333 3.99999 5.33333H3.33332C2.96513 5.33333 2.66666 5.03486 2.66666 4.66667ZM5.99999 4.66667C5.99999 4.29848 6.29847 4 6.66666 4H12.6667C13.0348 4 13.3333 4.29848 13.3333 4.66667C13.3333 5.03486 13.0348 5.33333 12.6667 5.33333H6.66666C6.29847 5.33333 5.99999 5.03486 5.99999 4.66667ZM2.66666 8C2.66666 7.63181 2.96513 7.33333 3.33332 7.33333H3.99999C4.36818 7.33333 4.66666 7.63181 4.66666 8C4.66666 8.36819 4.36818 8.66667 3.99999 8.66667H3.33332C2.96513 8.66667 2.66666 8.36819 2.66666 8ZM5.99999 8C5.99999 7.63181 6.29847 7.33333 6.66666 7.33333H12.6667C13.0348 7.33333 13.3333 7.63181 13.3333 8C13.3333 8.36819 13.0348 8.66667 12.6667 8.66667H6.66666C6.29847 8.66667 5.99999 8.36819 5.99999 8ZM2.66666 11.3333C2.66666 10.9651 2.96513 10.6667 3.33332 10.6667H3.99999C4.36818 10.6667 4.66666 10.9651 4.66666 11.3333C4.66666 11.7015 4.36818 12 3.99999 12H3.33332C2.96513 12 2.66666 11.7015 2.66666 11.3333ZM5.99999 11.3333C5.99999 10.9651 6.29847 10.6667 6.66666 10.6667H12.6667C13.0348 10.6667 13.3333 10.9651 13.3333 11.3333C13.3333 11.7015 13.0348 12 12.6667 12H6.66666C6.29847 12 5.99999 11.7015 5.99999 11.3333Z" fill="#1C1D22"/>
</g>
</svg>
